# AST/ASF file generated using VICON BodyLanguage
# -----------------------------------------------
:version 1.10
:name VICON
:units
  mass 1.0
  length 0.45
  angle deg
:documentation
   .ast/.asf automatically generated from VICON data using
   VICON BodyBuilder and BodyLanguage model FoxedUp or BRILLIANT.MOD
:root
   order TX TY TZ RX RY RZ
   axis XYZ
   position 0 0 0  
   orientation 0 0 0 
:bonedata
  begin
     id 1 
     name lhipjoint
     direction 0.570549 -0.739093 0.358072 
     length 2.41801 
     axis 0 0 0  XYZ
  end
  begin
     id 2 
     name lfemur
     direction 0.34202 -0.939693 0  
     length 7.44434  
     axis 0 0 20  XYZ
    dof rx ry rz
    limits (-160.0 20.0)
           (-70.0 70.0)
           (-60.0 70.0)
  end
  begin
     id 3 
     name ltibia
     direction 0.34202 -0.939693 0   
     length 7.60047   
     axis 0 0 20   XYZ
    dof rx
    limits (-10.0 170.0)
  end
  begin
     id 4 
     name lfoot
     direction 0.0909041 -0.249757 0.964032   
     length 2.03437   
     axis -90 7.62852e-016 20   XYZ
    dof rx rz
    limits (-45.0 90.0)
           (-70.0 20.0)
  end
  begin
     id 5 
     name ltoes
     direction 1.53547e-011 -4.2174e-011 1   
     length 1.02054   
     axis -90 7.62852e-016 20   XYZ
    dof rx
    limits (-90.0 20.0)
  end
  begin
     id 6 
     name rhipjoint
     direction -0.558096 -0.746754 0.361784   
     length 2.3932  
     axis 0 0 0  XYZ 
  end
  begin
     id 7 
     name rfemur
     direction -0.34202 -0.939693 0   
     length 7.3886   
     axis 0 0 -20   XYZ
    dof rx ry rz
    limits (-160.0 20.0)
           (-70.0 70.0)
           (-70.0 60.0)
  end
  begin
     id 8 
     name rtibia
     direction -0.34202 -0.939693 0   
     length 7.4839   
     axis 0 0 -20   XYZ
    dof rx
    limits (-10.0 170.0)
 end
 begin
     id 9 
     name rfoot
     direction -0.114619 -0.314914 0.942174   
     length 2.25127  
     axis -90 -7.62852e-016 -20   XYZ
    dof rx rz
    limits (-45.0 90.0)
           (-20.0 70.0)
  end
  begin
     id 10 
     name rtoes
     direction -1.53518e-011 -4.21881e-011 1   
     length 1.11821   
     axis -90 -7.62852e-016 -20   XYZ
    dof rx
    limits (-90.0 20.0)
  end
  begin
     id 11 
     name lowerback
     direction -0.00902269 0.996426 -0.0839821   
     length 2.25052   
     axis 0 0 0   XYZ
    dof rx ry rz
    limits (-20.0 45.0)
           (-30.0 30.0)
           (-30.0 30.0)
  end
  begin
     id 12 
     name upperback
     direction 0.0370973 0.999169 -0.0168941   
     length 2.24876   
     axis 0 0 0   XYZ
    dof rx ry rz
    limits (-20.0 45.0)
           (-30.0 30.0)
           (-30.0 30.0)
  end
  begin
     id 13 
     name thorax
     direction 0.0402726 0.998931 0.0227027   
     length 2.26408   
     axis 0 0 0   XYZ
    dof rx ry rz
    limits (-20.0 45.0)
           (-30.0 30.0)
           (-30.0 30.0)
  end
  begin
     id 14 
     name lowerneck
     direction -0.0733697 0.98508 0.155675   
     length 1.58204   
     axis 0 0 0   XYZ
    dof rx ry rz
    limits (-20.0 45.0)
           (-30.0 30.0)
           (-30.0 30.0)
  end
  begin
     id 15 
     name upperneck
     direction 0.0426554 0.993501 -0.105526   
     length 1.61222   
     axis 0 0 0   XYZ
    dof rx ry rz
    limits (-20.0 45.0)
           (-30.0 30.0)
           (-30.0 30.0)
  end
  begin
     id 16
     name head
     direction 0.020792 0.998384 -0.0528868  
     length 1.61527  
     axis 0 0 0   XYZ
    dof rx ry rz
    limits (-20.0 45.0)
           (-30.0 30.0)
           (-30.0 30.0)
  end
  begin
     id 17 
     name lclavicle
     direction 0.967109 0.155462 -0.201325  
     length 3.59357  
     axis 0 0 0   XYZ
    dof ry rz
    limits (-20.0 10.0)
           (0.0 20.0)
  end
  begin
     id 18 
     name lhumerus
     direction 1 -4.48968e-011 2.38195e-027   
     length 5.38154   
     axis 180 -30 -90   XYZ
    dof rx ry rz
    limits (-60.0 90.0)
           (-90.0 90.0)
           (-90.0 90.0)
  end
  begin
     id 19
     name lradius
     direction 1 -4.48961e-011 4.85371e-027   
     length 3.33312   
     axis 180 -30 -90   XYZ
    dof rx
    limits (-10.0 170.0)
  end
  begin
     id 20
     name lwrist
     direction 1 -4.48961e-011 4.76515e-027   
     length 1.66656   
     axis -3.27502e-015 90 90   XYZ
    dof ry
    limits (-180.0 0.0)
 end
  begin
     id 21 
     name lhand
     direction 1 -4.48951e-011 9.53074e-027   
     length 0.710789   
     axis -6.08098e-015 90 90   XYZ
    dof rx rz
    limits (-90.0 90.0)
           (-45.0 45.0)
  end
  begin
     id 22 
     name lfingers
     direction 1 -4.48953e-011 1.90613e-026   
     length 0.573057   
     axis -1.21619e-014 90 90   XYZ
    dof rx
    limits (0.0 90.0)
  end
  begin
     id 23
     name lthumb
     direction 0.707107 -6.34973e-011 0.707107   
     length 0.822798   
     axis -90 45 -9.86923e-015   XYZ
    dof rx rz
    limits (-45.0 45.0)
           (-45.0 45.0)
  end
  begin
     id 24 
     name rclavicle
     direction -0.9585 0.265289 -0.104398   
     length 3.42039  
     axis 0 0 0   XYZ 
    dof ry rz
    limits (-10.0 20.0)
           (-20.0 0.0)
  end
  begin
     id 25 
     name rhumerus
     direction -1 -4.48977e-011 2.21478e-027  
     length 5.16954   
     axis 180 30 90   XYZ
    dof rx ry rz
    limits (-90.0 60.0)
           (-90.0 90.0)
           (-90.0 90.0)
  end
  begin
     id 26 
     name rradius
     direction -1 -4.48967e-011 5.63677e-027   
     length 3.38287   
     axis 180 30 90   XYZ
    dof rx
    limits (-10.0 170.0)
  end
  begin
     id 27 
     name rwrist
     direction -1 -4.48967e-011 4.76501e-027   
     length 1.69144   
     axis -3.27502e-015 -90 -90   XYZ
    dof ry
    limits (-180.0 0.0)
  end
  begin
     id 28
     name rhand
     direction -1 -4.48902e-011 9.53292e-027   
     length 0.817967   
     axis -6.08098e-015 -90 -90   XYZ
    dof rx rz
    limits (-90.0 90.0)
           (-45.0 45.0)
  end
  begin
     id 29
     name rfingers
     direction -1 -4.49012e-011 1.90561e-026   
     length 0.659466   
     axis -1.21619e-014 -90 -90   XYZ
    dof rx
    limits (0.0 90.0)
  end
  begin
     id 30
     name rthumb
     direction -0.707107 -6.34944e-011 0.707107   
     length 0.946865   
     axis -90 -45 9.86923e-015   XYZ
    dof rx rz
    limits (-45.0 45.0)
           (-45.0 45.0)
  end
:hierarchy
  begin
    root lhipjoint rhipjoint lowerback
    lhipjoint lfemur
    lfemur ltibia
    ltibia lfoot
    lfoot ltoes
    rhipjoint rfemur
    rfemur rtibia
    rtibia rfoot
    rfoot rtoes
    lowerback upperback
    upperback thorax
    thorax lowerneck lclavicle rclavicle
    lowerneck upperneck
    upperneck head
    lclavicle lhumerus
    lhumerus lradius
    lradius lwrist
    lwrist lhand lthumb
    lhand lfingers
    rclavicle rhumerus
    rhumerus rradius
    rradius rwrist
    rwrist rhand rthumb
    rhand rfingers
  end

#!OML:ASF F:\twosubjects\two\wednesday\Session 1\Justin1.ASF
:FULLY-SPECIFIED
:DEGREES
1245
root 9.1345 17.6972 -14.5677 -0.944542 -3.28026 -0.701434
lowerback 3.35161 0.553213 -0.911376
upperback -2.1335 0.824025 3.47359
thorax -4.15141 0.48946 4.05578
lowerneck -20.6685 -3.20203 -10.5266
upperneck 21.0918 -2.47815 5.55359
head 10.3824 -1.32801 3.36261
rclavicle -1.2275e-014 -1.11319e-014
rhumerus -21.5714 15.9905 -95.0314
rradius 117.146
rwrist -24.0398
rhand -26.2517 34.96
rfingers 7.12502
rthumb 0.30265 4.98043
lclavicle -1.2275e-014 -1.11319e-014
lhumerus -13.0155 -18.2532 94.7331
lradius 109.871
lwrist 11.2782
lhand -29.789 45.1948
lfingers 7.12502
lthumb -3.11369 75.1518
rfemur 0.392535 1.34587 16.3711
rtibia 12.3071
rfoot -8.68717 -9.91278
rtoes -6.73078
lfemur -1.27319 -0.547399 -14.364
ltibia 16.4155
lfoot -11.7984 4.26322
ltoes -12.8097
1246
root 9.14467 17.7009 -14.5688 -0.859482 -3.39049 -0.513694
lowerback 3.35473 0.606686 -1.02224
upperback -2.24133 0.890654 3.42316
thorax -4.27163 0.527923 4.06165
lowerneck -20.3728 -3.17063 -10.4948
upperneck 20.9818 -2.41059 5.29509
head 10.2791 -1.327 3.27134
rclavicle 9.34288e-015 7.15625e-015
rhumerus -22.1473 16.5923 -95.7026
rradius 117.193
rwrist -23.2812
rhand -26.5387 35.4884
rfingers 7.12502
rthumb 0.0254872 5.50862
lclavicle 9.34288e-015 7.15625e-015
lhumerus -13.2171 -18.8069 95.6758
lradius 109.311
lwrist 10.9416
lhand -30.334 44.9886
lfingers 7.12502
lthumb -3.64003 74.9373
rfemur 0.215853 1.16252 16.0849
rtibia 12.351
rfoot -8.65298 -9.66303
rtoes -6.26769
lfemur -1.42874 -0.584102 -14.6232
ltibia 16.55
lfoot -11.8875 4.40747
ltoes -13.1086
1247
root 9.14507 17.7001 -14.5712 -0.903851 -3.52514 -0.618464
lowerback 3.59852 0.649052 -0.966335
upperback -2.35932 0.957664 3.47974
thorax -4.53879 0.565383 4.08382
lowerneck -20.1102 -3.13224 -10.6198
upperneck 21.0291 -2.34544 5.28182
head 10.2439 -1.31291 3.2979
rclavicle 9.54166e-015 3.81667e-014
rhumerus -22.8793 17.4654 -96.7107
rradius 117.085
rwrist -22.8891
rhand -27.2566 36.2884
rfingers 7.12502
rthumb -0.667912 6.30972
lclavicle 9.54166e-015 3.81667e-014
lhumerus -13.3415 -19.712 96.7086
lradius 108.689
lwrist 10.355
lhand -30.6836 44.779
lfingers 7.12502
lthumb -3.97758 74.7216
rfemur 0.268575 1.13114 16.2144
rtibia 12.2695
rfoot -8.47954 -9.60615
rtoes -6.33641
lfemur -1.4062 -0.684166 -14.5065
ltibia 16.7038
lfoot -12.1045 4.46871
ltoes -12.2041
1248
root 9.142 17.6978 -14.5748 -1.06818 -3.64569 -0.695511
lowerback 3.84694 0.675416 -0.968124
upperback -2.34813 0.996387 3.51678
thorax -4.67244 0.586902 4.11954
lowerneck -19.9048 -3.05786 -10.983
upperneck 20.9776 -2.26333 5.73257
head 10.1889 -1.25215 3.53293
rclavicle 8.54774e-015 2.22639e-014
rhumerus -23.6406 18.6149 -98.0098
rradius 116.778
rwrist -22.2389
rhand -28.327 37.3564
rfingers 7.12502
rthumb -1.70172 7.38346
lclavicle 8.54774e-015 2.22639e-014
lhumerus -13.6899 -21.0749 97.6017
lradius 108.218
lwrist 9.52246
lhand -30.88 44.4482
lfingers 7.12502
lthumb -4.16729 74.3872
rfemur 0.439813 1.27795 16.3543
rtibia 12.2354
rfoot -8.42648 -9.6814
rtoes -6.80131
lfemur -1.24751 -0.820469 -14.4043
ltibia 16.8135
lfoot -12.2975 4.52354
ltoes -10.567
1249
root 9.14603 17.6919 -14.5812 -1.07273 -3.7167 -0.765474
lowerback 3.98611 0.658751 -0.900719
upperback -2.38652 0.980849 3.52774
thorax -4.7895 0.579078 4.09367
lowerneck -19.872 -2.93673 -11.0545
upperneck 20.957 -2.08767 5.78505
head 10.1599 -1.17067 3.58913
rclavicle 1.23246e-014 -1.66979e-014
rhumerus -24.3817 20.4414 -99.4527
rradius 116.24
rwrist -20.8371
rhand -29.8063 38.6297
rfingers 7.12502
rthumb -3.13036 8.67292
lclavicle 1.23246e-014 -1.66979e-014
lhumerus -14.1996 -22.745 98.3403
lradius 107.945
lwrist 8.6468
lhand -30.6371 44.0091
lfingers 7.12502
lthumb -3.93268 73.9525
rfemur 0.392646 1.26287 16.424
rtibia 12.2999
rfoot -8.46255 -9.6071
rtoes -7.18891
lfemur -1.26893 -0.784045 -14.3567
ltibia 16.8294
lfoot -12.0685 4.67566
ltoes -11.5521
1250
root 9.15372 17.6894 -14.5795 -1.10924 -3.71091 -0.652619
lowerback 3.1927 0.622269 -0.738472
upperback -1.75664 0.906579 3.28018
thorax -3.66925 0.513031 3.74932
lowerneck -20.5842 -2.9713 -10.8061
upperneck 20.8093 -2.11287 5.7354
head 10.2364 -1.15603 3.52413
rclavicle 7.70291e-015 7.15625e-015
rhumerus -23.7901 22.6664 -100.791
rradius 115.582
rwrist -20.0185
rhand -31.3379 39.5377
rfingers 7.12502
rthumb -4.60945 9.60787
lclavicle 7.70291e-015 7.15625e-015
lhumerus -13.2114 -24.8427 98.6085
lradius 107.264
lwrist 7.88078
lhand -30.2857 43.4269
lfingers 7.12502
lthumb -3.5934 73.3763
rfemur 0.346758 0.972999 16.2227
rtibia 12.4558
rfoot -8.50837 -9.35952
rtoes -6.96915
lfemur -1.18461 -0.796403 -14.5419
ltibia 16.7304
lfoot -11.7645 4.83057
ltoes -13.0673
1251
root 9.15852 17.6904 -14.5763 -1.21837 -3.6005 -0.283615
lowerback 3.83406 0.648741 -1.20535
upperback -2.13568 0.929523 3.22285
thorax -4.43597 0.550138 3.95029
lowerneck -20.6581 -3.00532 -11.1321
upperneck 21.5035 -2.11265 5.93575
head 10.5087 -1.17259 3.66698
rclavicle 8.44835e-016 8.74653e-015
rhumerus -25.0445 24.7476 -102.384
rradius 115.246
rwrist -19.5044
rhand -32.7554 40.421
rfingers 7.12502
rthumb -5.97806 10.5254
lclavicle 8.44835e-016 8.74653e-015
lhumerus -14.475 -26.4887 100.832
lradius 106.363
lwrist 6.76383
lhand -29.7469 42.5383
lfingers 7.12502
lthumb -3.07304 72.4959
rfemur 0.397735 0.579198 15.7287
rtibia 12.5907
rfoot -8.55504 -9.09601
rtoes -7.12429
lfemur -1.0353 -0.968158 -14.9879
ltibia 16.6474
lfoot -11.7857 4.82731
ltoes -12.0859
1252
root 9.1582 17.6889 -14.5787 -1.31328 -3.51888 -0.0544857
lowerback 3.44002 0.591624 -1.47319
upperback -1.73 0.826319 3.14526
thorax -3.78526 0.490846 4.029
lowerneck -21.0266 -3.00747 -11.1739
upperneck 21.4411 -2.07271 6.00644
head 10.5517 -1.14308 3.70537
rclavicle 1.17283e-014 2.70347e-014
rhumerus -24.8452 27.5146 -103.614
rradius 114.589
rwrist -19.0401
rhand -34.3314 41.3821
rfingers 7.12502
rthumb -7.49949 11.5351
lclavicle 1.17283e-014 2.70347e-014
lhumerus -12.9593 -30.6068 100.503
lradius 105.817
lwrist 7.43255
lhand -29.7595 44.3583
lfingers 7.12502
lthumb -3.08522 74.3158
rfemur 0.521696 0.434405 15.4533
rtibia 12.5594
rfoot -8.54035 -9.01478
rtoes -7.42849
lfemur -0.967309 -0.977559 -15.2333
ltibia 16.6678
lfoot -11.9286 4.68467
ltoes -11.2531
1253
root 9.15478 17.6842 -14.5804 -1.37565 -3.63016 -0.47845
lowerback 3.45335 0.533092 -1.04846
upperback -1.60796 0.768121 3.19225
thorax -3.65569 0.448561 3.8407
lowerneck -21.3427 -2.91369 -10.8154
upperneck 21.5807 -1.9644 5.77156
head 10.6439 -1.09159 3.57997
rclavicle 1.0138e-014 1.03368e-014
rhumerus -25.124 30.5322 -105.253
rradius 113.814
rwrist -19.4598
rhand -36.029 42.2606
rfingers 7.12502
rthumb -9.13782 12.4786
lclavicle 1.0138e-014 1.03368e-014
lhumerus -14.2653 -31.3014 102.748
lradius 104.826
lwrist 6.69976
lhand -28.1579 42.3653
lfingers 7.12502
lthumb -1.53844 72.3395
rfemur 0.747092 0.67891 15.9698
rtibia 12.3014
rfoot -8.49986 -9.14071
rtoes -6.91938
lfemur -0.925673 -0.853732 -14.7408
ltibia 16.8114
lfoot -12.0455 4.72623
ltoes -12.2178
